<svg width="20" height="20" viewBox="0 0 20 20" fill="none" xmlns="http://www.w3.org/2000/svg">
<path d="M5.89535 2.19072C5.89535 1.86453 5.63452 1.6001 5.31276 1.6001C4.99101 1.6001 4.73017 1.86453 4.73017 2.19072V3.43439C3.61212 3.52515 2.87814 3.74791 2.33889 4.29459C1.79965 4.84127 1.57993 5.58538 1.4904 6.71885H16.903C16.8135 5.58538 16.5937 4.84127 16.0545 4.29459C15.5152 3.74791 14.7813 3.52515 13.6632 3.43439V2.19072C13.6632 1.86453 13.4024 1.6001 13.0806 1.6001C12.7589 1.6001 12.498 1.86453 12.498 2.19072V3.38213C11.9813 3.37197 11.402 3.37197 10.7503 3.37197H7.64312C6.99137 3.37197 6.41212 3.37197 5.89535 3.38213V2.19072Z" fill="white"/>
<path fill-rule="evenodd" clip-rule="evenodd" d="M1.42883 9.67197C1.42883 9.01123 1.42883 8.42399 1.43886 7.9001H16.9545C16.9645 8.42399 16.9645 9.01123 16.9645 9.67197V11.247C16.9645 14.2168 16.9645 15.7017 16.0545 16.6244C15.1444 17.547 13.6797 17.547 10.7503 17.547H7.64312C4.71368 17.547 3.24896 17.547 2.33889 16.6244C1.42883 15.7017 1.42883 14.2168 1.42883 11.247V9.67197ZM13.0806 11.247C13.5096 11.247 13.8574 10.8944 13.8574 10.4595C13.8574 10.0245 13.5096 9.67197 13.0806 9.67197C12.6516 9.67197 12.3038 10.0245 12.3038 10.4595C12.3038 10.8944 12.6516 11.247 13.0806 11.247ZM13.0806 14.397C13.5096 14.397 13.8574 14.0444 13.8574 13.6095C13.8574 13.1745 13.5096 12.822 13.0806 12.822C12.6516 12.822 12.3038 13.1745 12.3038 13.6095C12.3038 14.0444 12.6516 14.397 13.0806 14.397ZM9.97348 10.4595C9.97348 10.8944 9.6257 11.247 9.19669 11.247C8.76768 11.247 8.4199 10.8944 8.4199 10.4595C8.4199 10.0245 8.76768 9.67197 9.19669 9.67197C9.6257 9.67197 9.97348 10.0245 9.97348 10.4595ZM9.97348 13.6095C9.97348 14.0444 9.6257 14.397 9.19669 14.397C8.76768 14.397 8.4199 14.0444 8.4199 13.6095C8.4199 13.1745 8.76768 12.822 9.19669 12.822C9.6257 12.822 9.97348 13.1745 9.97348 13.6095ZM5.31276 11.247C5.74177 11.247 6.08955 10.8944 6.08955 10.4595C6.08955 10.0245 5.74177 9.67197 5.31276 9.67197C4.88375 9.67197 4.53598 10.0245 4.53598 10.4595C4.53598 10.8944 4.88375 11.247 5.31276 11.247ZM5.31276 14.397C5.74177 14.397 6.08955 14.0444 6.08955 13.6095C6.08955 13.1745 5.74177 12.822 5.31276 12.822C4.88375 12.822 4.53598 13.1745 4.53598 13.6095C4.53598 14.0444 4.88375 14.397 5.31276 14.397Z" fill="white"/>
</svg>
